<svg width="38" height="38" viewBox="0 0 38 38" fill="none" xmlns="http://www.w3.org/2000/svg">
<path d="M29 1H9C6.87827 1 4.84344 1.84285 3.34315 3.34315C1.84285 4.84344 1 6.87827 1 9V29C1 31.1217 1.84285 33.1566 3.34315 34.6569C4.84344 36.1571 6.87827 37 9 37H29C31.1217 37 33.1566 36.1571 34.6569 34.6569C36.1571 33.1566 37 31.1217 37 29V9C37 6.87827 36.1571 4.84344 34.6569 3.34315C33.1566 1.84285 31.1217 1 29 1Z" fill="#2F88FF" stroke="black" stroke-linejoin="round"/>
<path d="M19 27C21.1217 27 23.1566 26.1571 24.6569 24.6569C26.1571 23.1566 27 21.1217 27 19C27 16.8783 26.1571 14.8434 24.6569 13.3431C23.1566 11.8429 21.1217 11 19 11C16.8783 11 14.8434 11.8429 13.3431 13.3431C11.8429 14.8434 11 16.8783 11 19C11 21.1217 11.8429 23.1566 13.3431 24.6569C14.8434 26.1571 16.8783 27 19 27V27Z" fill="#43CCF8" stroke="white" stroke-width="4" stroke-linejoin="round"/>
<path d="M30 10C30.5304 10 31.0391 9.78929 31.4142 9.41421C31.7893 9.03914 32 8.53043 32 8C32 7.46957 31.7893 6.96086 31.4142 6.58579C31.0391 6.21071 30.5304 6 30 6C29.4696 6 28.9609 6.21071 28.5858 6.58579C28.2107 6.96086 28 7.46957 28 8C28 8.53043 28.2107 9.03914 28.5858 9.41421C28.9609 9.78929 29.4696 10 30 10Z" fill="white"/>
</svg>
