<svg width="33" height="33" viewBox="0 0 33 33" fill="none" xmlns="http://www.w3.org/2000/svg">
<g clip-path="url(#clip0_30:2734)">
<path d="M28.1155 28.1167H23.226V20.4593C23.226 18.6333 23.1934 16.2827 20.6829 16.2827C18.1363 16.2827 17.7466 18.2722 17.7466 20.3264V28.1162H12.8572V12.3695H17.551V14.5214H17.6168C18.0865 13.7182 18.7653 13.0575 19.5809 12.6095C20.3965 12.1616 21.3183 11.9432 22.2481 11.9777C27.2039 11.9777 28.1176 15.2375 28.1176 19.4783L28.1155 28.1167V28.1167ZM7.33997 10.2171C5.77286 10.2174 4.50223 8.94715 4.50197 7.38004C4.50171 5.81293 5.77183 4.5423 7.33894 4.54204C8.90605 4.54165 10.1767 5.81189 10.1769 7.37901C10.1771 8.13157 9.87826 8.85336 9.34623 9.38561C8.8142 9.91786 8.09253 10.217 7.33997 10.2171V10.2171ZM9.78481 28.1168H4.89011V12.3695H9.78468V28.1167L9.78481 28.1168ZM30.5532 0.00105899H2.43315C1.10413 -0.0138941 0.014228 1.05074 -0.00201416 2.37977V30.6171C0.0137124 31.9467 1.10349 33.0124 2.43302 32.9985H30.5532C31.8855 33.015 32.9796 31.9493 32.998 30.6171V2.37757C32.979 1.04597 31.8849 -0.0185348 30.5532 -0.00113241" fill="#0A66C2"/>
</g>
<defs>
<clipPath id="clip0_30:2734">
<rect width="33" height="33" fill="white"/>
</clipPath>
</defs>
</svg>
