<svg width="56" height="12" viewBox="0 0 56 12" fill="none" xmlns="http://www.w3.org/2000/svg">
<path d="M28.2844 9.81914C28.2844 10.0133 28.2844 10.0576 28.4156 10.1773L29.1501 10.902V10.9331H25.8923V9.54024C25.735 9.98613 25.4422 10.3716 25.0548 10.6428C24.6675 10.9139 24.205 11.0571 23.7322 11.0523C22.0582 11.0523 20.8425 9.72617 20.8425 7.28602C20.8425 5.00008 22.1545 3.47484 23.9952 3.47484C24.3948 3.45069 24.792 3.5519 25.1313 3.76435C25.4707 3.9768 25.7352 4.28989 25.888 4.65992V1.58703C25.8999 1.51749 25.8924 1.44599 25.8663 1.38045C25.8401 1.31491 25.7963 1.25789 25.7398 1.2157L25.0398 0.534844V0.504219L28.2844 0.119218V9.81914ZM25.8923 9.37672V4.79227C25.7767 4.64645 25.629 4.52919 25.4608 4.44953C25.2926 4.36988 25.1083 4.32997 24.9222 4.33289C24.1303 4.33289 23.3652 5.0575 23.3652 7.21055C23.3652 9.22633 24.0253 9.93836 24.8473 9.93836C25.0534 9.93377 25.2555 9.8805 25.4372 9.78289C25.6188 9.68528 25.7748 9.54611 25.8923 9.37672V9.37672ZM30.444 10.9331V4.74359C30.4543 4.67568 30.4477 4.60628 30.4248 4.54152C30.4019 4.47676 30.3634 4.41863 30.3127 4.37227L29.5914 3.62086V3.58969H32.8486V9.86781C32.8486 10.062 32.8486 10.1062 32.9798 10.2255L33.6973 10.9063V10.9375L30.444 10.9331ZM30.3259 1.32617C30.3259 0.593359 30.9132 0 31.6378 0C32.3624 0 32.9492 0.593906 32.9492 1.32617C32.9492 2.05898 32.3624 2.65234 31.6378 2.65234C30.9132 2.65234 30.3259 2.05898 30.3259 1.32617ZM41.6369 9.80602C41.6369 10.0002 41.6369 10.0576 41.7681 10.1773L42.5026 10.902V10.9331H39.2279V9.3461C39.0854 9.83278 38.7908 10.261 38.3872 10.5681C37.9836 10.8751 37.4922 11.0448 36.9852 11.0523C35.5332 11.0523 34.755 9.98266 34.755 7.95758C34.755 6.98086 34.755 5.91063 34.7856 4.70859C34.7975 4.64261 34.7916 4.57466 34.7685 4.51171C34.7455 4.44877 34.7061 4.39309 34.6544 4.35039L33.9336 3.62031V3.58914H37.1651V7.62563C37.1651 8.9518 37.357 9.83609 38.179 9.83609C38.397 9.82193 38.608 9.75347 38.7928 9.63694C38.9777 9.52041 39.1304 9.35952 39.2372 9.16891V4.74742C39.2475 4.67951 39.2409 4.61011 39.218 4.54535C39.1951 4.48059 39.1566 4.42246 39.1059 4.37609L38.3802 3.62031V3.58914H41.6374V9.80547L41.6369 9.80602ZM52.7253 10.9326C52.7253 10.6941 52.7691 7.65297 52.7691 6.95406C52.7691 5.62789 52.5634 4.71297 51.6409 4.71297C51.4112 4.72043 51.1866 4.78196 50.9853 4.89257C50.7839 5.00318 50.6115 5.15974 50.482 5.34953C50.5746 5.763 50.6186 6.18586 50.6133 6.60953C50.6133 7.52883 50.5827 8.70024 50.5695 9.87219C50.5577 9.93817 50.5636 10.0061 50.5866 10.0691C50.6097 10.132 50.6491 10.1877 50.7008 10.2304L51.4352 10.9113V10.9419H48.1474C48.1474 10.7209 48.1912 7.66172 48.1912 6.96281C48.1912 5.61477 47.9855 4.72172 47.0761 4.72172C46.6277 4.73813 46.2186 4.98422 45.9916 5.37578V9.88531C45.9916 10.08 45.9916 10.1243 46.1229 10.2435L46.8398 10.9244V10.955H43.587V4.76602C43.5974 4.69802 43.5909 4.62851 43.568 4.56364C43.5451 4.49878 43.5065 4.44056 43.4558 4.39414L42.7345 3.62086V3.58969H45.9922V5.16359C46.2946 4.12453 47.2571 3.42672 48.3273 3.47047C49.4113 3.47047 50.1463 4.08078 50.4563 5.23906C50.6211 4.72088 50.948 4.26934 51.3888 3.95093C51.8296 3.63253 52.361 3.4641 52.9047 3.47047C54.3566 3.47047 55.1786 4.55328 55.1786 6.60023C55.1786 7.5775 55.148 8.69148 55.1348 9.86289C55.1223 9.93059 55.1297 10.0005 55.1561 10.0641C55.1825 10.1277 55.2268 10.1822 55.2836 10.2211L56.0005 10.902V10.9331H52.7259L52.7253 10.9326ZM11.8054 9.96953L12.7712 10.902V10.9331H7.87008V10.902L8.85391 9.96953C8.90559 9.92683 8.94499 9.87116 8.96805 9.80821C8.99112 9.74526 8.99702 9.67731 8.98516 9.61133V3.64711C8.98516 3.39555 8.98516 3.05484 9.02891 2.76336L5.72359 11.0523H5.68422L2.26078 3.42617C2.18586 3.23641 2.16398 3.22273 2.11586 3.09477V8.09485C2.07482 8.42939 2.13102 8.76867 2.27773 9.07211L3.65531 10.902V10.9331H0V10.902L1.37703 9.06719C1.52257 8.76513 1.57874 8.42776 1.53891 8.09485V2.56867C1.56166 2.29719 1.48077 2.02715 1.3125 1.81289L0.336875 0.534844V0.504219H3.83469L6.76375 6.96281L9.34336 0.504219H12.7668V0.534844L11.8054 1.61766C11.7486 1.65982 11.7047 1.7169 11.6784 1.78255C11.6522 1.8482 11.6446 1.91985 11.6566 1.98953V9.61133C11.6441 9.67903 11.6514 9.74892 11.6779 9.8125C11.7043 9.87609 11.7486 9.93065 11.8054 9.96953V9.96953ZM15.6395 6.98086V7.01149C15.6395 8.90367 16.6059 9.66383 17.7384 9.66383C18.2028 9.67882 18.6614 9.55749 19.0577 9.31482C19.4539 9.07215 19.7704 8.71876 19.968 8.29828H19.9987C19.6049 10.1686 18.4598 11.0523 16.7459 11.0523C14.8963 11.0523 13.1518 9.92524 13.1518 7.31227C13.1518 4.56695 14.9007 3.47047 16.8334 3.47047C18.3898 3.47047 20.0468 4.21313 20.0468 6.60078V6.98086H15.6395V6.98086ZM15.6395 6.60078H17.7953V6.21578C17.7953 4.27055 17.3972 3.7532 16.7984 3.7532C16.0727 3.7532 15.6308 4.52703 15.6308 6.60078H15.6395V6.60078Z" fill="#FAFF00"/>
</svg>
