<svg width="21" height="21" viewBox="0 0 21 21" fill="none" xmlns="http://www.w3.org/2000/svg">
<path d="M0 0V21H21V0H0ZM17.4451 4.97634L16.3203 6.05653C16.272 6.09194 16.2346 6.14013 16.2122 6.19566C16.1898 6.2512 16.1834 6.31188 16.1936 6.37088V14.3043C16.1833 14.3638 16.1896 14.4249 16.212 14.481C16.2344 14.5371 16.2718 14.5859 16.3203 14.6219L17.4175 15.7021V15.9377H11.8873V15.7021L13.0252 14.5943C13.1381 14.4815 13.1381 14.4506 13.1381 14.28V7.8645L9.96975 15.9101H9.54253L5.85441 7.8645V13.2582C5.82356 13.484 5.89903 13.713 6.05587 13.8771L7.539 15.6752V15.9108H3.33834V15.6752L4.82147 13.8771C4.97897 13.713 5.0505 13.484 5.00916 13.2582V7.02384C5.01877 6.93831 5.00762 6.85173 4.97667 6.77142C4.94571 6.69111 4.89585 6.61945 4.83131 6.5625L3.51553 4.97634V4.73681H7.60331L10.7651 11.6721L13.5437 4.73681H17.4438L17.4451 4.97634Z" fill="black"/>
</svg>
