<svg width="32" height="32" viewBox="0 0 32 32" fill="none" xmlns="http://www.w3.org/2000/svg">
<path d="M15.885 2.10001C8.785 2.10001 9.234 5.17001 9.234 5.17001V8.36001H15.986V9.36001H6.545C6.545 9.36001 2 8.80001 2 16.005C2 23.21 6.013 22.917 6.013 22.917H8.33V19.556C8.33 19.556 8.2 15.543 12.23 15.543H18.992C18.992 15.543 22.764 15.603 22.764 11.891V5.80001C22.764 5.80001 23.336 2.08801 15.922 2.08801L15.885 2.10001ZM12.153 4.23701C12.393 4.23096 12.6295 4.29622 12.8324 4.42455C13.0354 4.55288 13.1957 4.73851 13.2932 4.95796C13.3906 5.17742 13.4208 5.42084 13.3799 5.65745C13.339 5.89405 13.2288 6.11321 13.0633 6.28721C12.8979 6.46121 12.6845 6.58224 12.4503 6.63498C12.216 6.68772 11.9714 6.66981 11.7473 6.58351C11.5232 6.49722 11.3298 6.34641 11.1914 6.15017C11.0531 5.95392 10.976 5.72105 10.97 5.48101V5.46101C10.97 5.13904 11.0979 4.83025 11.3256 4.60259C11.5532 4.37492 11.862 4.24701 12.184 4.24701L12.153 4.23701Z" fill="url(#paint0_linear_62:2747)"/>
<path d="M16.085 29.91C23.185 29.91 22.736 26.83 22.736 26.83V23.65H15.985V22.65H25.455C25.455 22.65 30 23.158 30 15.995C30 8.83199 25.987 9.08299 25.987 9.08299H23.64V12.4C23.64 12.4 23.77 16.413 19.74 16.413H12.975C12.975 16.413 9.20001 16.356 9.20001 20.068V26.2C9.20001 26.2 8.62801 29.912 16.042 29.912H16.082L16.085 29.91ZM19.817 27.763C19.577 27.769 19.3405 27.7038 19.1376 27.5754C18.9346 27.4471 18.7743 27.2615 18.6769 27.042C18.5794 26.8226 18.5492 26.5792 18.5901 26.3426C18.631 26.1059 18.7412 25.8868 18.9067 25.7128C19.0721 25.5388 19.2855 25.4178 19.5197 25.365C19.754 25.3123 19.9986 25.3302 20.2227 25.4165C20.4468 25.5028 20.6402 25.6536 20.7786 25.8498C20.9169 26.0461 20.994 26.2789 21 26.519V26.549C21 26.871 20.8721 27.1797 20.6444 27.4074C20.4168 27.6351 20.108 27.763 19.786 27.763H19.816H19.817Z" fill="url(#paint1_linear_62:2747)"/>
<defs>
<linearGradient id="paint0_linear_62:2747" x1="4.76716" y1="4.82291" x2="18.0538" y2="18.0795" gradientUnits="userSpaceOnUse">
<stop stop-color="#387EB8"/>
<stop offset="1" stop-color="#366994"/>
</linearGradient>
<linearGradient id="paint1_linear_62:2747" x1="12.6275" y1="13.4586" x2="27.8077" y2="26.7111" gradientUnits="userSpaceOnUse">
<stop stop-color="#FFE052"/>
<stop offset="1" stop-color="#FFC331"/>
</linearGradient>
</defs>
</svg>
