<svg width="32" height="32" viewBox="0 0 32 32" fill="none" xmlns="http://www.w3.org/2000/svg">
<path d="M29.01 5.03005L23.244 2.25405C22.9184 2.09705 22.552 2.04524 22.1956 2.1058C21.8392 2.16636 21.5105 2.3363 21.255 2.59205L2.38 19.8C2.15099 20.0078 2.01391 20.2981 1.9989 20.607C1.9839 20.9159 2.09221 21.218 2.3 21.4471C2.325 21.4741 2.35 21.5 2.377 21.524L3.918 22.924C4.11936 23.1073 4.37856 23.2143 4.65056 23.2263C4.92257 23.2384 5.19021 23.1548 5.407 22.99L28.142 5.75005C28.3137 5.61974 28.5184 5.53995 28.733 5.51967C28.9476 5.49938 29.1636 5.5394 29.3567 5.63522C29.5498 5.73104 29.7124 5.87886 29.826 6.06204C29.9397 6.24522 29.9999 6.45648 30 6.67205V6.60505C30 6.27595 29.9071 5.95354 29.7319 5.67491C29.5568 5.39629 29.3065 5.17276 29.01 5.03005V5.03005Z" fill="#0065A9"/>
<path d="M29.01 26.97L23.244 29.747C22.9183 29.9036 22.552 29.9551 22.1957 29.8946C21.8394 29.8341 21.5107 29.6644 21.255 29.409L2.38 12.2C2.15099 11.9922 2.01391 11.702 1.9989 11.3931C1.9839 11.0842 2.09221 10.782 2.3 10.553C2.325 10.526 2.35 10.5 2.377 10.476L3.918 9.07602C4.11957 8.89199 4.37935 8.78456 4.65203 8.7725C4.92471 8.76044 5.19297 8.8445 5.41 9.01002L28.142 26.25C28.3137 26.3803 28.5184 26.4601 28.733 26.4804C28.9476 26.5007 29.1636 26.4607 29.3567 26.3649C29.5498 26.269 29.7124 26.1212 29.826 25.938C29.9397 25.7549 29.9999 25.5436 30 25.328V25.4C29.9989 25.7282 29.9055 26.0495 29.7304 26.3272C29.5554 26.6048 29.3057 26.8276 29.01 26.97V26.97Z" fill="#007ACC"/>
<path d="M23.244 29.7469C22.9183 29.9035 22.552 29.9551 22.1957 29.8945C21.8394 29.834 21.5107 29.6643 21.255 29.4089C21.3986 29.5507 21.5809 29.6469 21.7789 29.6855C21.9769 29.7241 22.182 29.7034 22.3683 29.626C22.5546 29.5486 22.7139 29.4179 22.8263 29.2503C22.9387 29.0827 22.9991 28.8857 23 28.6839V3.31594C23.0002 3.11323 22.9402 2.91503 22.8276 2.74645C22.715 2.57786 22.555 2.44649 22.3677 2.36895C22.1804 2.29142 21.9743 2.27122 21.7755 2.31092C21.5767 2.35062 21.3942 2.44842 21.251 2.59194C21.5065 2.33628 21.8352 2.16633 22.1915 2.1056C22.5478 2.04487 22.9142 2.09636 23.24 2.25294L29.005 5.02494C29.3025 5.16694 29.5538 5.39016 29.7298 5.66884C29.9059 5.94752 29.9995 6.27031 30 6.59994V25.3999C30.0001 25.7293 29.9071 26.052 29.7318 26.3308C29.5564 26.6097 29.3059 26.8333 29.009 26.9759L23.244 29.7469Z" fill="#1F9CF0"/>
</svg>
